<svg id="Solid" height="30" viewBox="0 0 512 512" width="30" fill='#1b2021' xmlns="http://www.w3.org/2000/svg"><path d="m176 480h142.242l-1.224-6.121a72.2 72.2 0 0 0 -70.602-57.879h-30.416a8 8 0 0 1 0-16h30.416a88.069 88.069 0 0 1 64.253 27.961l-22.576-146.744a8 8 0 0 1 15.814-2.434l23.576 153.243c.171-.011.342-.026.517-.026h40v-152a8 8 0 0 1 16 0v152h38.173l25.876-232.884a8.009 8.009 0 0 1 2.294-4.773c.2-.206 21.657-22.18 21.657-50.343 0-29.239-14.51-51.343-14.656-51.562a8 8 0 0 1 -1.282-3.446l-6.227-49.815-28.835 23.07a8 8 0 0 1 -8.576.908c-11.741-5.87-36.049-7.155-44.424-7.155-.222 0-23.068.122-45.47 7.59a8 8 0 0 1 -7.53-1.343l-28.837-23.07-6.227 49.815a8 8 0 0 1 -1.282 3.446c-.134.207-14.654 22.537-14.654 51.562 0 28.163 21.453 50.137 21.669 50.355a8.006 8.006 0 0 1 -5.669 13.645c-29.78 0-65.829 19.305-94.081 50.382-32.19 35.41-49.919 80.018-49.919 125.618 0 51.138 11.9 74.761 21.878 85.574 9.211 9.978 18.037 10.426 18.122 10.426zm216-376h48a8 8 0 0 1 8 8c0 13.835-6.688 40-32 40-13.248 0-23.366-7.525-28.491-21.191a59.643 59.643 0 0 1 -3.509-18.809 8 8 0 0 1 8-8zm-31.155 52.422a8 8 0 0 1 14.31 0c.62 1.239 3.879 5.776 19.816 12.15a8 8 0 1 1 -5.942 14.856c-9.254-3.7-16.172-7.431-21.029-11.383-4.857 3.952-11.775 7.682-21.029 11.383a8 8 0 1 1 -5.942-14.856c15.937-6.372 19.196-10.911 19.816-12.15zm-64.845-52.422h48a8 8 0 0 1 8 8c0 13.835-6.688 40-32 40-13.248 0-23.366-7.525-28.491-21.191a59.643 59.643 0 0 1 -3.509-18.809 8 8 0 0 1 8-8z"/><path d="m416 136c4.059 0 9.876-1.12 13.509-10.809a37.185 37.185 0 0 0 1.5-5.191h-30.02a36.678 36.678 0 0 0 1.621 5.5c3.646 9.412 9.39 10.5 13.39 10.5z"/><path d="m320 136c4.059 0 9.876-1.12 13.509-10.809a37.185 37.185 0 0 0 1.5-5.191h-30.02a36.678 36.678 0 0 0 1.621 5.5c3.646 9.412 9.39 10.5 13.39 10.5z"/><path d="m384 480h32.84l3.555-32h-36.395z"/><path d="m334.863 480h33.137v-32h-38.06z"/><path d="m95.515 93.569c-1.8 12.152-8.549 34.284-19.235 68.756-16.164 52.146-36.28 117.042-36.28 149.675 0 81.409 44.348 149.47 103 164.773-7.329-9.269-14.178-23.014-18.464-43.374-32.051-22.953-52.536-69.934-52.536-121.399 0-35.056 20.514-101.235 37-154.412 9.773-31.526 19-61.3 19-69.588a40 40 0 0 0 -80 0 16 16 0 0 0 31.854 2.165 19.5 19.5 0 0 0 .146-2.149v-.016a8 8 0 0 1 16 0v.017a32.058 32.058 0 0 1 -.485 5.552z"/></svg>
