<svg height="300pt" viewBox="0 0 512 512" width="300pt" xmlns="http://www.w3.org/2000/svg"><g><g><path d="m256 40a160 160 0 0 1 160 160v272a0 0 0 0 1 0 0h-320a0 0 0 0 1 0 0v-272a160 160 0 0 1 160-160z" fill="#787680"/><path d="m344 168v48h-64v160h-48v-160h-64v-48h64v-64h48v64z" fill="#ffda44"/><path d="m168 328 8-8" fill="#d8d7da"/><path d="m184 408h144v32h-144z" fill="#3e3d42"/></g><g><path d="m224 376a8 8 0 0 0 8 8h48a8 8 0 0 0 8-8v-152h56a8 8 0 0 0 8-8v-48a8 8 0 0 0 -8-8h-56v-56a8 8 0 0 0 -8-8h-48a8 8 0 0 0 -8 8v56h-56a8 8 0 0 0 -8 8v48a8 8 0 0 0 8 8h56zm-48-168v-32h56a8 8 0 0 0 8-8v-56h32v56a8 8 0 0 0 8 8h56v32h-56a8 8 0 0 0 -8 8v152h-32v-152a8 8 0 0 0 -8-8z"/><path d="m181.657 314.343a8 8 0 0 0 -11.314 0l-8 8a8 8 0 0 0 11.314 11.314l8-8a8 8 0 0 0 0-11.314z"/><path d="m496 464h-8a8 8 0 0 0 0 16h8a8 8 0 0 0 0-16z"/><path d="m464 464h-15.44c1.99-14.16 9.04-24 15.44-24a8 8 0 0 0 0-16c-8.97 0-16.97 5.27-22.73 13.9-4.09-8.47-9.95-14.72-17.27-18.32v-219.58c0-92.64-75.36-168-168-168s-168 75.36-168 168v264h-31.44c1.99-14.16 9.04-24 15.44-24a8 8 0 0 0 0-16c-8.97 0-16.97 5.27-22.73 13.9-6.75-13.96-18.28-21.9-33.27-21.9a8 8 0 0 0 0 16c17.71 0 22.43 19.35 23.62 32h-23.62a8 8 0 0 0 0 16h448a8 8 0 0 0 0-16zm-56-126.95-11.56-7.71a8.008 8.008 0 0 0 -6.97-.93l-19.31 6.44-28.5-28.51a8 8 0 0 0 -11.32 11.32l32 32a8.012 8.012 0 0 0 8.19 1.93l20.29-6.76 17.18 11.45v59.72a8 8 0 0 0 0 16v32h-304v-163.06l21.26-10.63 12.08 18.13a8.014 8.014 0 0 0 6.66 3.56 7.928 7.928 0 0 0 2.53-.41l24-8a8 8 0 1 0 -5.06-15.18l-18.2 6.07-12.61-18.92a8.021 8.021 0 0 0 -10.24-2.72l-20.42 10.22v-83.06c0-83.81 68.19-152 152-152s152 68.19 152 152zm16 126.95v-23.85c5.01 6.77 6.92 16.45 7.62 23.85z"/><path d="m328 400h-144a8 8 0 0 0 -8 8v32a8 8 0 0 0 8 8h144a8 8 0 0 0 8-8v-32a8 8 0 0 0 -8-8zm-8 32h-128v-16h128z"/></g></g></svg>
